<?xml version="1.0" encoding="utf-8"?>
<svg viewBox="0 0 500 500" xmlns="http://www.w3.org/2000/svg">
  <path style="stroke: rgb(0, 0, 0);" d="M 43.705 210.32 C 87.42 235.997 149.448 203.778 217.719 199.489 C 244.247 197.822 287.63 205.302 316.585 214.625 C 330.3 219.041 317.959 187.494 319.648 155.995 C 321.948 113.103 327.727 101.815 335.991 91.677 C 342.349 83.877 354.49 77.532 365.938 77.684 C 388.389 77.981 410.264 88.862 421.066 115.945 C 426.797 130.314 426.622 144.663 449.755 147.329 C 459.356 148.436 467.816 152.11 467.868 156.442 C 467.923 161.17 456.922 162.299 448.315 162.696 C 405.672 164.663 395.56 173.14 387.115 201.012 C 383.699 212.285 394.323 227.576 409.734 241.824 C 435.017 265.198 442.233 315.981 392.754 356.296 C 364.659 379.187 342 387.916 275.84 387.074 C 250.135 386.746 221.681 383.977 180.833 369.005 C 126.743 349.178 79.943 312.272 51.267 265.548 C 30.959 232.459 17.306 194.814 43.705 210.32 Z"/>
</svg>